# xmcd
#
# Track frame offsets:
#	150
#	14807
#	25535
#	34427
#	46802
#	58262
#	71870
#	86365
#	96405
#	109057
#	123787
#	133467
#
# Disc length: 1920 seconds
#
# Revision: 1
# Processed by: cddbd v1.5.2PL0 Copyright (c) Steve Scherf et al.
# Submitted via: audiograbber 1.83.01
#
DISCID=ac077e0c
DTITLE=Shirley Bates - New Walls Shirley Bates
DYEAR=1900
DGENRE=
TTITLE0=I Need New Walls
TTITLE1=I Don´t Know The Man
TTITLE2=Dear Lord
TTITLE3=Lonely Woman
TTITLE4=That Little Church
TTITLE5=God Invitation
TTITLE6=From My Lord To Me
TTITLE7=Mountain Bound
TTITLE8=Don´t You Lie To Me
TTITLE9=Cheatin Door
TTITLE10=Here I Go Again
TTITLE11=Am I Ready
EXTD=
EXTT0=
EXTT1=
EXTT2=
EXTT3=
EXTT4=
EXTT5=
EXTT6=
EXTT7=
EXTT8=
EXTT9=
EXTT10=
EXTT11=
PLAYORDER=
